Coordinates
version=1
nRows=22
nColumns=24
inDegrees=yes

Units are S.I. units (second, meters, Newtons, ...)
Angles are in degrees.

endheader
time	pelvis_tilt	pelvis_list	pelvis_rotation	pelvis_tx	pelvis_ty	pelvis_tz	hip_flexion_r	hip_adduction_r	hip_rotation_r	knee_angle_r	ankle_angle_r	subtalar_angle_r	mtp_angle_r	hip_flexion_l	hip_adduction_l	hip_rotation_l	knee_angle_l	ankle_angle_l	subtalar_angle_l	mtp_angle_l	lumbar_extension	lumbar_bending	lumbar_rotation
      3.54500000	    -12.43762878	    -12.23683947	      3.20441065	     -0.92702868	     -0.04145809	      0.43591112	     32.39425948	     14.42964563	      1.78541964	    -21.62750873	     -5.93596621	     -6.58201945	      3.49597256	     14.98186069	    -12.12427368	      5.78047567	    -58.75129172	    -26.73515653	      6.76357262	     27.26746095	     10.01029279	     11.89317398	     -3.28859976
      3.55000000	    -12.31480651	    -12.38329626	      3.24109621	     -0.91963480	     -0.04053694	      0.43667133	     31.66102722	     14.72314736	      1.88399815	    -21.37216546	     -5.58818262	     -6.80897263	      3.26242123	     16.02013310	    -12.31907581	      5.81962494	    -60.13067583	    -26.63175797	      4.85019854	     25.93340131	      9.92928381	     11.96237484	     -3.20393594
      3.55500000	    -12.19282350	    -12.49016465	      3.28195027	     -0.91229911	     -0.03956242	      0.43740712	     30.92691281	     14.97669290	      1.99997037	    -21.11998474	     -5.25840877	     -7.02785433	      3.02312570	     17.05457097	    -12.46898808	      5.85218331	    -61.40647774	    -26.45282054	      3.08989075	     24.57730375	      9.83921584	     11.99030615	     -3.10058613
      3.56000000	    -12.06314243	    -12.56241142	      3.36102509	     -0.90502494	     -0.03852653	      0.43810574	     30.17768528	     15.18912482	      2.15140482	    -20.84998728	     -5.01041547	     -7.35819146	      2.76094215	     18.07984769	    -12.56712923	      5.92521682	    -62.55124672	    -26.28579335	      1.46437854	     23.48386679	      9.74353472	     11.96859310	     -3.07233246
      3.56500000	    -11.94588446	    -12.59656454	      3.40730208	     -0.89771740	     -0.03746135	      0.43879935	     29.42373403	     15.37949526	      2.37218941	    -20.57826794	     -4.73483302	     -7.63154876	      2.45924741	     19.08334151	    -12.62717393	      5.95907375	    -63.58928030	    -25.97630707	      0.07335096	     22.29392441	      9.65858104	     11.92093075	     -2.95055741
      3.57000000	    -11.82983482	    -12.59757827	      3.45910275	     -0.89040853	     -0.03635560	      0.43944640	     28.66009594	     15.53805448	      2.62586469	    -20.29831762	     -4.49259049	     -7.96086709	      2.10048005	     20.05836743	    -12.64660310	      5.99035616	    -64.49342094	    -25.56999573	     -1.08597301	     21.28852020	      9.57695398	     11.83921934	     -2.82390634
      3.57500000	    -11.70952692	    -12.60431429	      3.51261961	     -0.88311020	     -0.03522632	      0.44004982	     27.88714771	     15.70000211	      2.86602439	    -19.99990147	     -4.33696621	     -8.34180721	      1.76659791	     21.00305957	    -12.66919856	      6.03311501	    -65.25584852	    -25.12550621	     -2.08213552	     20.69811135	      9.49789403	     11.76939565	     -2.65778790
      3.58000000	    -11.59944821	    -12.49765543	      3.52948173	     -0.87582237	     -0.03404319	      0.44069437	     27.10208098	     15.77594430	      3.27946578	    -19.71997497	     -4.14031490	     -8.74735864	      1.34868914	     21.89501293	    -12.57395007	      6.00190898	    -65.88466802	    -24.54969920	     -2.85216793	     20.04970415	      9.40818665	     11.58330871	     -2.48347850
      3.58500000	    -11.46108202	    -12.39125813	      3.53141218	     -0.86855081	     -0.03284137	      0.44131431	     26.28643714	     15.85344285	      3.70006705	    -19.45991709	     -3.84210169	     -8.99781626	      0.78572208	     22.72723394	    -12.49055760	      5.94822172	    -66.42094273	    -23.69904740	     -3.25132039	     19.39369152	      9.28386448	     11.41234287	     -2.28432129
      3.59000000	    -11.37191764	    -12.15833895	      3.56746456	     -0.86138393	     -0.03161244	      0.44188557	     25.52608542	     15.77476989	      4.10454834	    -19.20034153	     -3.62055121	     -9.35316994	      0.52775892	     23.56603137	    -12.22832727	      5.93231656	    -66.76054833	    -23.01411279	     -3.60496930	     19.41725012	      9.19665608	     11.09612574	     -2.10317015
      3.59500000	    -11.25526828	    -11.92451070	      3.52329884	     -0.85413125	     -0.03029370	      0.44251573	     24.69626014	     15.73058706	      4.62405112	    -18.90655371	     -3.47489705	     -9.70897871	      0.09963370	     24.29724099	    -12.01191137	      5.80045513	    -66.96480876	    -22.13045221	     -3.77342804	     19.43595287	      9.07994027	     10.80195902	     -1.80423705
      3.60000000	    -11.13590171	    -11.64141704	      3.50231945	     -0.84698741	     -0.02897495	      0.44309922	     23.87550148	     15.61145204	      5.10957864	    -18.63341663	     -3.24835368	     -9.96589776	     -0.26523189	     25.00997699	    -11.72363021	      5.67982018	    -67.06251476	    -21.19280472	     -3.76866607	     19.59137542	      8.94374650	     10.45831713	     -1.53375785
      3.60500000	    -11.00346560	    -11.34303157	      3.45274474	     -0.83984373	     -0.02764625	      0.44371602	     23.02271850	     15.48112033	      5.63973137	    -18.34454447	     -2.98071645	    -10.17403953	     -0.66330657	     25.66870524	    -11.43665253	      5.51654915	    -67.04639347	    -20.17969297	     -3.59509673	     19.85850666	      8.78741660	     10.10583937	     -1.24838108
      3.61000000	    -10.90437971	    -10.96398347	      3.39323235	     -0.83278478	     -0.02628623	      0.44428083	     22.21187647	     15.24370169	      6.11190451	    -18.06381444	     -2.73451679	    -10.30562777	     -0.94370928	     26.31635504	    -11.04009406	      5.33641322	    -66.89701637	    -19.17102651	     -3.34257713	     20.22099110	      8.65145476	      9.67378927	     -0.90949462
      3.61500000	    -10.78465796	    -10.58019548	      3.31497780	     -0.82573596	     -0.02493765	      0.44488268	     21.36273058	     14.99970492	      6.61724980	    -17.75774411	     -2.44838638	    -10.38703274	     -1.19730028	     26.91431341	    -10.65458950	      5.12810874	    -66.65148664	    -18.12608622	     -2.93976993	     20.66386946	      8.48981017	      9.24304855	     -0.57764979
      3.62000000	    -10.66124362	    -10.17245019	      3.23301586	     -0.81875849	     -0.02359075	      0.44545222	     20.51193566	     14.71328231	      7.10555879	    -17.44725354	     -2.15778988	    -10.39942123	     -1.41506412	     27.48221703	    -10.23209670	      4.91917564	    -66.30676288	    -17.07875671	     -2.45117812	     21.14047873	      8.31346779	      8.79391638	     -0.23627661
      3.62500000	    -10.57396013	     -9.72319547	      3.12364156	     -0.81184764	     -0.02228626	      0.44599821	     19.71254806	     14.36665481	      7.52351121	    -17.14500116	     -1.87695625	    -10.34571137	     -1.51145399	     28.05557031	     -9.75779872	      4.68281578	    -65.86378287	    -16.07478836	     -1.93045836	     21.60106369	      8.16425231	      8.30986797	      0.17124852
      3.63000000	    -10.45132757	     -9.30060171	      3.01115584	     -0.80484453	     -0.02100527	      0.44655433	     18.84265415	     14.03822565	      7.96474093	    -16.78340837	     -1.56051871	    -10.24202297	     -1.57771948	     28.56664267	     -9.32524885	      4.44269186	    -65.33861282	    -15.07491603	     -1.29694159	     22.07700493	      7.99890346	      7.85880282	      0.53303332
      3.63500000	    -10.36294586	     -8.85511690	      2.88247910	     -0.79795564	     -0.01982067	      0.44708740	     18.04014776	     13.67058817	      8.33512646	    -16.45283211	     -1.25497296	    -10.10523355	     -1.56534797	     29.09723583	     -8.85366003	      4.20045853	    -64.74025715	    -14.12383951	     -0.68331504	     22.49522344	      7.84989774	      7.38621237	      0.94657280
      3.64000000	    -10.22483570	     -8.44233467	      2.75986810	     -0.79101121	     -0.01865840	      0.44756979	     17.15838502	     13.32222916	      8.71771422	    -16.06600831	     -0.93925574	     -9.93293966	     -1.52900976	     29.55648962	     -8.41865760	      3.97256546	    -64.07489186	    -13.18711690	      0.01169342	     22.87236792	      7.66570218	      6.96087497	      1.30736978
      3.64500000	    -10.16401996	     -8.02195244	      2.60554617	     -0.78407902	     -0.01764843	      0.44807531	     16.38469553	     12.95667805	      9.03658288	    -15.71001218	     -0.63459350	     -9.73214818	     -1.42237293	     30.07943414	     -7.97776298	      3.72232466	    -63.34335093	    -12.33652860	      0.64437735	     23.17888283	      7.56263380	      6.52223886	      1.73294840
      3.65000000	    -10.07761274	     -7.63039549	      2.45626848	     -0.77713019	     -0.01671315	      0.44852658	     15.57917908	     12.60835955	      9.34118981	    -15.33151469	     -0.33051450	     -9.52439108	     -1.28674108	     30.56266319	     -7.56339958	      3.49279008	    -62.55824551	    -11.50910653	      1.30137676	     23.42936517	      7.44039960	      6.12848961	      2.13407332
